<svg xmlns="http://www.w3.org/2000/svg" viewBox="0 0 256 256">
  <!-- Transparent background -->
  <rect width="256" height="256" rx="32" fill="transparent"/>

  <!-- Document shape -->
  <path d="M64 32h96l48 48v144a8 8 0 0 1-8 8H64a8 8 0 0 1-8-8V40a8 8 0 0 1 8-8z" fill="#ffffff" stroke="#2b2b2b" stroke-width="8"/>
  <polyline points="160 32 160 80 208 80" fill="#ffffff" stroke="#2b2b2b" stroke-width="8"/>

  <!-- PDF Text -->
  <text x="76" y="120" font-family="Arial, Helvetica, sans-serif" font-size="48" fill="#d32f2f" font-weight="bold">PDF</text>

  <!-- Gear (closely matching original PNG gear design) -->
  <g transform="translate(152, 168) scale(0.7)">
    <circle cx="0" cy="0" r="18" fill="#2b2b2b"/>
    <circle cx="0" cy="0" r="8" fill="#ffffff"/>
    <g stroke="#2b2b2b" stroke-width="5" stroke-linecap="round">
      <line x1="0" y1="-28" x2="0" y2="-18" />
      <line x1="0" y1="28" x2="0" y2="18" />
      <line x1="-28" y1="0" x2="-18" y2="0" />
      <line x1="28" y1="0" x2="18" y2="0" />
      <line x1="20" y1="20" x2="14" y2="14" />
      <line x1="-20" y1="20" x2="-14" y2="14" />
      <line x1="20" y1="-20" x2="14" y2="-14" />
      <line x1="-20" y1="-20" x2="-14" y2="-14" />
    </g>
  </g>
</svg>
